# xmcd
#
# Track frame offsets:
#	150
#	13301
#	27874
#	43737
#	54746
#	65727
#	89802
#	112095
#	125304
#	137017
#	161363
#
# Disc length: 2348 seconds
#
# Revision: 0
# Processed by: cddbd v1.4PL0 Copyright (c) Steve Scherf et al.
# Submitted via: dBpowerAMP V4.0
#
DISCID=9f092a0b
DTITLE=Tommy Hunter - Readings
DYEAR=1900
DGENRE=
TTITLE0=No Charge
TTITLE1=Everything's OK
TTITLE2=Trouble In Amen Corner
TTITLE3=Touch Of The Master's Hand
TTITLE4=Farmer And The Lord
TTITLE5=Sleeping Beauty
TTITLE6=Old Doc Brown
TTITLE7=Flowers
TTITLE8=Just Waiting
TTITLE9=New Year's Resolution
TTITLE10=Beyond The Sunset
EXTD=
EXTT0=
EXTT1=
EXTT2=
EXTT3=
EXTT4=
EXTT5=
EXTT6=
EXTT7=
EXTT8=
EXTT9=
EXTT10=
PLAYORDER=
